<svg width="24" height="24" viewBox="0 0 24 24" fill="none" xmlns="http://www.w3.org/2000/svg">
<path fill-rule="evenodd" clip-rule="evenodd" d="M6.5 7.75C6.5 7.05964 7.05964 6.5 7.75 6.5H12.25C12.6642 6.5 13 6.16421 13 5.75C13 5.33579 12.6642 5 12.25 5H7.75C6.23122 5 5 6.23122 5 7.75V16.75C5 18.2688 6.23122 19.5 7.75 19.5H16.75C18.2688 19.5 19.5 18.2688 19.5 16.75V12.25C19.5 11.8358 19.1642 11.5 18.75 11.5C18.3358 11.5 18 11.8358 18 12.25V16.75C18 17.4404 17.4404 18 16.75 18H7.75C7.05964 18 6.5 17.4404 6.5 16.75V7.75ZM12.2803 13.2803L19.2803 6.28033C19.5732 5.98744 19.5732 5.51256 19.2803 5.21967C18.9874 4.92678 18.5126 4.92678 18.2197 5.21967L11.2197 12.2197C10.9268 12.5126 10.9268 12.9874 11.2197 13.2803C11.5126 13.5732 11.9874 13.5732 12.2803 13.2803Z" fill="#9499A0"/>
</svg>
